Coordinates
version=1
nRows=13
nColumns=34
inDegrees=yes

Units are S.I. units (second, meters, Newtons, ...)
If the header above contains a line with 'inDegrees', this indicates whether rotational values are in degrees (yes) or radians (no).

endheader
time	pelvis_tilt	pelvis_list	pelvis_rotation	pelvis_tx	pelvis_ty	pelvis_tz	hip_flexion_r	hip_adduction_r	hip_rotation_r	knee_angle_r	ankle_angle_r	subtalar_angle_r	mtp_angle_r	hip_flexion_l	hip_adduction_l	hip_rotation_l	knee_angle_l	ankle_angle_l	subtalar_angle_l	mtp_angle_l	lumbar_extension	lumbar_bending	lumbar_rotation	arm_flex_r	arm_add_r	arm_rot_r	elbow_flex_r	pro_sup_r	arm_flex_l	arm_add_l	arm_rot_l	elbow_flex_l	pro_sup_l
      0.00000000	     -1.90759668	     -0.06280234	     -2.74366235	      1.81086767	      0.87157877	     -0.19655556	     -0.51160641	     -4.70734429	     -1.42058287	      3.55426426	      0.79556084	    -17.59275199	      0.00000000	     -1.67674711	     -3.23522934	     -6.29357152	      2.18927914	      5.80358440	     -6.73350981	      0.00000000	     -8.58574159	      1.45265716	     -2.86415788	     16.23452654	     -4.87706820	     38.99199294	     88.10622981	    100.65363810	      3.69981839	     -4.75855146	     17.99098509	     85.97880264	     97.95989516
      0.01666670	     -4.41220308	      0.41079342	     -2.69289517	      1.81260973	      0.87075931	     -0.19719253	      2.86888982	     -4.99583450	     -0.10627114	      4.44058027	      4.14452771	    -15.75294481	      0.00000000	      2.23205369	     -2.53281253	     -6.84415238	      2.95896373	      7.16220928	     -5.17786462	      0.00000000	     -5.17284710	      1.54308240	     -2.45534013	     14.35109697	     -4.58488992	     36.18228524	     87.53373858	     99.82511913	      2.39677866	     -4.18445685	     15.30033873	     85.32883566	     96.81324411
      0.03333330	     -4.47694233	      1.24017356	     -2.86034761	      1.81226021	      0.87127461	     -0.19566743	      2.64845433	     -6.01656434	     -0.40182148	      3.61719116	      4.49765438	    -14.88385027	      0.00000000	      2.13363319	     -1.83114653	     -7.99359929	      2.36872442	      7.28401616	     -4.17732968	      0.00000000	     -4.84163091	      0.59149740	     -1.90551906	     14.13304147	     -4.48587526	     35.61308088	     86.64935419	     98.86383681	      3.29801112	     -4.60186636	     14.33841857	     84.06654059	     94.48312102
      0.05000000	     -3.89410778	      1.70514529	     -2.96678212	      1.81221612	      0.87306841	     -0.19400297	      1.58241798	     -6.57358183	      0.13320435	      2.76432460	      4.59395884	    -15.12979426	      0.00000000	      0.73857556	     -1.26025164	     -8.01608887	      1.05076483	      6.30813283	     -4.80768510	      0.00000000	     -5.51126665	     -0.01438066	     -1.36327215	     13.99147305	     -4.72106845	     35.65855048	     86.30598074	     98.61169429	      4.22090878	     -5.07899534	     13.54489994	     83.65733677	     93.82484160
      0.06666670	     -3.52015992	      1.98010892	     -2.88053323	      1.81266191	      0.87438980	     -0.19277202	      0.63640848	     -6.79897350	      0.42983072	      1.81930262	      4.46731581	    -15.58701553	      0.00000000	     -0.19731117	     -0.91430895	     -7.70678799	      0.00000000	      5.88598493	     -5.14010605	      0.00000000	     -5.88370037	     -0.34295248	     -1.16024005	     13.93752356	     -4.79706549	     35.83537589	     86.48882660	     98.44190519	      4.79378205	     -5.26169560	     13.19636349	     83.51409051	     93.51472871
      0.08333330	     -2.83189208	      1.99232692	     -2.73497558	      1.81240821	      0.87548878	     -0.19166951	     -0.53011350	     -6.68915686	      0.84412440	      1.07809047	      3.98103525	    -16.57417132	      0.00000000	     -0.91935205	     -0.94816457	     -7.19002153	      0.00000000	      5.59443938	     -5.82899557	      0.00000000	     -6.84520748	     -0.45106524	     -1.04738447	     14.16888106	     -4.87864630	     35.95169502	     86.92419307	     98.13349197	      5.43949158	     -5.41561501	     13.09568043	     83.37809319	     93.20054550
      0.10000000	     -2.82090038	      2.04280322	     -2.72819614	      1.81203894	      0.87594527	     -0.19066559	     -0.53917109	     -6.64469459	      0.84774045	      1.06834131	      3.98345411	    -16.57785369	      0.00000000	     -0.90556796	     -0.94581723	     -7.18524539	      0.00000000	      5.59099347	     -5.82787373	      0.00000000	     -6.83847938	     -0.45035712	     -1.04470985	     14.17155000	     -4.87501876	     35.95432014	     86.92858312	     98.13247807	      5.44569438	     -5.41167584	     13.09657107	     83.38264445	     93.19985357
      0.11666670	     -2.52772785	      2.03575770	     -2.39486300	      1.81207760	      0.87606925	     -0.18961727	     -1.49872435	     -6.50626804	      1.23363372	      0.00000000	      3.24738919	    -17.73953273	      0.00000000	     -1.19530791	     -1.03452098	     -6.47293750	      0.00000000	      5.12251450	     -6.29770938	      0.00000000	     -7.14224774	     -0.50119784	     -1.00788128	     14.24122384	     -5.02624435	     36.49593388	     87.61831030	     97.84104138	      5.70597929	     -5.44982453	     13.72363771	     83.67355248	     93.07729305
      0.13333330	     -2.52296787	      2.00405709	     -2.31799337	      1.81163069	      0.87625845	     -0.18796398	     -1.48606558	     -6.33267792	      1.36970734	      0.00000000	      3.27370521	    -17.79296432	      0.00000000	     -1.16123730	     -1.17368341	     -6.37757241	      0.00000000	      5.02122218	     -6.25905861	      0.00000000	     -7.30631336	     -0.66512529	     -1.04390014	     14.21360979	     -4.97942225	     36.56850044	     87.62496992	     97.82373684	      5.53918245	     -5.24849767	     13.90091235	     83.61448731	     93.07643941
      0.15000000	     -2.48275465	      1.97131278	     -2.31988304	      1.81131902	      0.87624323	     -0.18626441	     -1.50249731	     -6.18194610	      1.54126644	      0.00000000	      3.33684831	    -17.93555670	      0.00000000	     -1.20259209	     -1.30994777	     -6.20244121	      0.00000000	      4.81476123	     -6.18579766	      0.00000000	     -7.48341272	     -0.68378169	     -1.15119062	     14.16614550	     -4.98785252	     36.69585226	     87.63909585	     97.79901924	      5.18463593	     -4.92083424	     14.27696818	     83.46785094	     93.08349723
      0.16666670	     -2.26062338	      1.90902973	     -2.23893318	      1.81077288	      0.87634241	     -0.18466765	     -1.74633713	     -5.99533414	      2.43943271	      0.00000000	      2.62032870	    -19.80306285	      0.00000000	     -1.41727727	     -1.46881465	     -5.61796769	      0.00000000	      4.06691104	     -7.26723766	      0.00000000	     -7.65648699	     -0.42158603	     -1.01600649	     14.70433221	     -5.60804150	     38.16838261	     88.01026222	     97.30076890	      5.78929742	     -5.31640077	     16.62308909	     82.24039098	     92.99672495
      0.18333330	     -2.25809386	      1.90750297	     -2.29727283	      1.81046033	      0.87668388	     -0.18257564	     -1.70616984	     -5.84202040	      2.43714472	      0.00000000	      2.65513749	    -19.87510939	      0.00000000	     -1.42229173	     -1.59688882	     -5.59335701	      0.00000000	      3.94960241	     -7.23163859	      0.00000000	     -7.75077451	     -0.52661678	     -1.05911263	     14.65343765	     -5.68710881	     38.14697122	     87.99426191	     97.27584646	      5.56980371	     -5.23620652	     16.75583135	     82.16096581	     92.99260578
      0.20000000	     -2.23662779	      1.89555391	     -2.28378204	      1.81039140	      0.87755846	     -0.18059428	     -1.72894457	     -5.67428323	      2.45382779	      0.00000000	      2.73210135	    -20.01910217	      0.00000000	     -1.44553719	     -1.74118642	     -5.63671492	      0.00000000	      3.70888051	     -7.20602256	      0.00000000	     -7.79891826	     -0.56048656	     -1.12649740	     14.58549470	     -5.81395759	     38.13697097	     87.99788327	     97.23673665	      5.22373986	     -5.14897947	     17.01422969	     82.02666756	     92.98952853
